<svg id = 'front' width = '400' height = '300' xmlns="http://www.w3.org/2000/svg" version="1.1">
       <!-- background -->
       <rect x = '0' y = '0' width = '400' height = '300' style='stroke-width:1px;fill:rgb(238, 254, 110);stroke:rgb(0,0,0)' />

       <!-- ceilling -->
       <rect width="400" height="10" x="0" y="30" style="stroke-width:1px;fill:rgb(255,255,255);stroke:rgb(0,0,0);"></rect>
       <ellipse cx="20" cy="15" rx="4" ry="8" style="fill:rgb(255,255,255);stroke:rgb(0,0,0);stroke-width:1"/>
       <ellipse cx="40" cy="15" rx="4" ry="8" style="fill:rgb(255,255,255);stroke:rgb(0,0,0);stroke-width:1"/>
       <ellipse cx="60" cy="15" rx="4" ry="8" style="fill:rgb(255,255,255);stroke:rgb(0,0,0);stroke-width:1"/>
       <ellipse cx="80" cy="15" rx="4" ry="8" style="fill:rgb(255,255,255);stroke:rgb(0,0,0);stroke-width:1"/>
       <ellipse cx="100" cy="15" rx="4" ry="8" style="fill:rgb(255,255,255);stroke:rgb(0,0,0);stroke-width:1"/>
       <ellipse cx="120" cy="15" rx="4" ry="8" style="fill:rgb(255,255,255);stroke:rgb(0,0,0);stroke-width:1"/>
       <ellipse cx="140" cy="15" rx="4" ry="8" style="fill:rgb(255,255,255);stroke:rgb(0,0,0);stroke-width:1"/>
       <ellipse cx="160" cy="15" rx="4" ry="8" style="fill:rgb(255,255,255);stroke:rgb(0,0,0);stroke-width:1"/>
       <ellipse cx="180" cy="15" rx="4" ry="8" style="fill:rgb(255,255,255);stroke:rgb(0,0,0);stroke-width:1"/>
       <ellipse cx="200" cy="15" rx="4" ry="8" style="fill:rgb(255,255,255);stroke:rgb(0,0,0);stroke-width:1"/>
       <ellipse cx="220" cy="15" rx="4" ry="8" style="fill:rgb(255,255,255);stroke:rgb(0,0,0);stroke-width:1"/>
       <ellipse cx="240" cy="15" rx="4" ry="8" style="fill:rgb(255,255,255);stroke:rgb(0,0,0);stroke-width:1"/>
       <ellipse cx="260" cy="15" rx="4" ry="8" style="fill:rgb(255,255,255);stroke:rgb(0,0,0);stroke-width:1"/>
       <ellipse cx="280" cy="15" rx="4" ry="8" style="fill:rgb(255,255,255);stroke:rgb(0,0,0);stroke-width:1"/>
       <ellipse cx="300" cy="15" rx="4" ry="8" style="fill:rgb(255,255,255);stroke:rgb(0,0,0);stroke-width:1"/>
       <ellipse cx="320" cy="15" rx="4" ry="8" style="fill:rgb(255,255,255);stroke:rgb(0,0,0);stroke-width:1"/>
       <ellipse cx="340" cy="15" rx="4" ry="8" style="fill:rgb(255,255,255);stroke:rgb(0,0,0);stroke-width:1"/>
       <ellipse cx="360" cy="15" rx="4" ry="8" style="fill:rgb(255,255,255);stroke:rgb(0,0,0);stroke-width:1"/>
       <ellipse cx="380" cy="15" rx="4" ry="8" style="fill:rgb(255,255,255);stroke:rgb(0,0,0);stroke-width:1"/>

       <!-- 2nd floor Window 1-->

       <rect width="100" height="80" x="25" y="60" style="stroke-width:1px;fill:rgb(255,255,255);stroke:rgb(0,0,0);"></rect>
       <rect width="100" height="10" x="25" y="60" style="stroke-width:1px;fill:rgb(255,255,255);stroke:rgb(0,0,0);"></rect>
       <rect width="40" height="50" x="35" y="80" style="stroke-width:4px;fill:rgb(255,255,255);stroke:rgb(0,0,0);"></rect>
       <rect width="40" height="50" x="75" y="80" style="stroke-width:4px;fill:rgb(255,255,255);stroke:rgb(0,0,0);"></rect>
       <!--Window 2-->
       <rect width="100" height="80" x="150" y="60" style="stroke-width:1px;fill:rgb(255,255,255);stroke:rgb(0,0,0);"></rect>
       <rect width="100" height="10" x="150" y="60" style="stroke-width:1px;fill:rgb(255,255,255);stroke:rgb(0,0,0);"></rect>
       <rect width="40" height="50" x="160" y="80" style="stroke-width:4px;fill:rgb(255,255,255);stroke:rgb(0,0,0);"></rect>
       <rect width="40" height="50" x="200" y="80" style="stroke-width:4px;fill:rgb(255,255,255);stroke:rgb(0,0,0);"></rect>
       <!--Window 3-->
       <rect width="100" height="80" x="280" y="60" style="stroke-width:1px;fill:rgb(255,255,255);stroke:rgb(0,0,0);"></rect>
       <rect width="100" height="10" x="280" y="60" style="stroke-width:1px;fill:rgb(255,255,255);stroke:rgb(0,0,0);"></rect>
       <rect width="40" height="50" x="290" y="80" style="stroke-width:4px;fill:rgb(255,255,255);stroke:rgb(0,0,0);"></rect>
       <rect width="40" height="50" x="330" y="80" style="stroke-width:4px;fill:rgb(255,255,255);stroke:rgb(0,0,0);"></rect>

       <!-- Door -->
       <rect width="400" height="10" x="0" y="160" style="stroke-width:1px;fill:rgb(255,255,255);stroke:rgb(0,0,0);"></rect>
       <rect width="90" height="120" x="75" y="180" style="stroke-width:1px;fill:rgb(255,255,255);stroke:rgb(0,0,0);"></rect>
       <rect width="100" height="10" x="70" y="180" style="stroke-width:1px;fill:rgb(255,255,255);stroke:rgb(0,0,0);"></rect>
       <rect width="80" height="100" x="80" y="195" style="stroke-width:4px;fill:rgb(255,255,255);stroke:rgb(0,0,0);"></rect>

       <!-- Garage -->
       <rect width="150" height="120" x="200" y="180" style="stroke-width:4px;fill:rgb(255,255,255);stroke:rgb(0,0,0);"></rect>
       <circle cx="150" cy="250" r="5" stroke="black" stroke-width="2" fill=""/>
       <text x="225" y="230" style = 'fill:rgb(237,87,54); font-weight:bold; font-size: 12'>Garage No Block</text>

</svg>