<svg id = 'side' width = '300' height = '300' xmlns="http://www.w3.org/2000/svg" version="1.1">
     <!-- background -->
    <rect x = '0' y = '0' width = '300' height = '300' style='stroke-width:1px;fill:rgb(192, 192, 192);stroke:rgb(0,0,0)' />

    <!-- ceilling -->
    <rect width="300" height="10" x="0" y="30" style="stroke-width:1px;fill:rgb(255,255,255);stroke:rgb(0,0,0);"></rect>
    <ellipse cx="20" cy="15" rx="4" ry="8" style="fill:rgb(255,255,255);stroke:rgb(0,0,0);stroke-width:1"/>
    <ellipse cx="40" cy="15" rx="4" ry="8" style="fill:rgb(255,255,255);stroke:rgb(0,0,0);stroke-width:1"/>
    <ellipse cx="60" cy="15" rx="4" ry="8" style="fill:rgb(255,255,255);stroke:rgb(0,0,0);stroke-width:1"/>
    <ellipse cx="80" cy="15" rx="4" ry="8" style="fill:rgb(255,255,255);stroke:rgb(0,0,0);stroke-width:1"/>
    <ellipse cx="100" cy="15" rx="4" ry="8" style="fill:rgb(255,255,255);stroke:rgb(0,0,0);stroke-width:1"/>
    <ellipse cx="120" cy="15" rx="4" ry="8" style="fill:rgb(255,255,255);stroke:rgb(0,0,0);stroke-width:1"/>
    <ellipse cx="140" cy="15" rx="4" ry="8" style="fill:rgb(255,255,255);stroke:rgb(0,0,0);stroke-width:1"/>
    <ellipse cx="160" cy="15" rx="4" ry="8" style="fill:rgb(255,255,255);stroke:rgb(0,0,0);stroke-width:1"/>
    <ellipse cx="180" cy="15" rx="4" ry="8" style="fill:rgb(255,255,255);stroke:rgb(0,0,0);stroke-width:1"/>
    <ellipse cx="200" cy="15" rx="4" ry="8" style="fill:rgb(255,255,255);stroke:rgb(0,0,0);stroke-width:1"/>
    <ellipse cx="220" cy="15" rx="4" ry="8" style="fill:rgb(255,255,255);stroke:rgb(0,0,0);stroke-width:1"/>
    <ellipse cx="240" cy="15" rx="4" ry="8" style="fill:rgb(255,255,255);stroke:rgb(0,0,0);stroke-width:1"/>
    <ellipse cx="260" cy="15" rx="4" ry="8" style="fill:rgb(255,255,255);stroke:rgb(0,0,0);stroke-width:1"/>
    <ellipse cx="280" cy="15" rx="4" ry="8" style="fill:rgb(255,255,255);stroke:rgb(0,0,0);stroke-width:1"/>

    <!-- 2nd floor Window 1-->
    <rect width="100" height="80" x="25" y="60" style="stroke-width:1px;fill:rgb(255,255,255);stroke:rgb(0,0,0);"></rect>
    <rect width="100" height="10" x="25" y="60" style="stroke-width:1px;fill:rgb(255,255,255);stroke:rgb(0,0,0);"></rect>
    <rect width="40" height="50" x="35" y="80" style="stroke-width:4px;fill:rgb(255,255,255);stroke:rgb(0,0,0);"></rect>
    <rect width="40" height="50" x="75" y="80" style="stroke-width:4px;fill:rgb(255,255,255);stroke:rgb(0,0,0);"></rect>
    <!--Window 2-->
    <rect width="100" height="80" x="170" y="60" style="stroke-width:1px;fill:rgb(255,255,255);stroke:rgb(0,0,0);"></rect>
    <rect width="100" height="10" x="170" y="60" style="stroke-width:1px;fill:rgb(255,255,255);stroke:rgb(0,0,0);"></rect>
    <rect width="40" height="50" x="180" y="80" style="stroke-width:4px;fill:rgb(255,255,255);stroke:rgb(0,0,0);"></rect>
    <rect width="40" height="50" x="220" y="80" style="stroke-width:4px;fill:rgb(255,255,255);stroke:rgb(0,0,0);"></rect>

    <!-- 1st floor -->
    <rect width="300" height="10" x="0" y="160" style="stroke-width:1px;fill:rgb(255,255,255);stroke:rgb(0,0,0);"></rect>
    <rect width="100" height="80" x="100" y="200" style="stroke-width:1px;fill:rgb(255,255,255);stroke:rgb(0,0,0);"></rect>
    <rect width="100" height="10" x="100" y="200" style="stroke-width:1px;fill:rgb(255,255,255);stroke:rgb(0,0,0);"></rect>
    <rect width="40" height="50" x="110" y="220" style="stroke-width:4px;fill:rgb(255,255,255);stroke:rgb(0,0,0);"></rect>
    <rect width="40" height="50" x="150" y="220" style="stroke-width:4px;fill:rgb(255,255,255);stroke:rgb(0,0,0);"></rect>

</svg>